<?xml version="1.0" encoding="UTF-8" standalone="no"?>
<!-- Created with Inkscape (http://www.inkscape.org/) -->

<svg
   xmlns:dc="http://purl.org/dc/elements/1.1/"
   xmlns:cc="http://creativecommons.org/ns#"
   xmlns:rdf="http://www.w3.org/1999/02/22-rdf-syntax-ns#"
   xmlns:svg="http://www.w3.org/2000/svg"
   xmlns="http://www.w3.org/2000/svg"
   xmlns:sodipodi="http://sodipodi.sourceforge.net/DTD/sodipodi-0.dtd"
   xmlns:inkscape="http://www.inkscape.org/namespaces/inkscape"
   width="210"
   height="130"
   viewBox="0 0 55.562499 34.395835"
   version="1.1"
   id="svg8"
   inkscape:version="0.92.2 (5c3e80d, 2017-08-06)"
   sodipodi:docname="fake sig.svg">
  <defs
     id="defs2" />
  <sodipodi:namedview
     id="base"
     pagecolor="#ffffff"
     bordercolor="#666666"
     borderopacity="1.0"
     inkscape:pageopacity="0.0"
     inkscape:pageshadow="2"
     inkscape:zoom="3.959798"
     inkscape:cx="68.675283"
     inkscape:cy="93.678565"
     inkscape:document-units="px"
     inkscape:current-layer="layer1"
     showgrid="true"
     inkscape:window-width="1920"
     inkscape:window-height="1017"
     inkscape:window-x="1912"
     inkscape:window-y="-8"
     inkscape:window-maximized="1"
     units="px"
     showguides="false"
     inkscape:measure-start="20,185"
     inkscape:measure-end="220,185">
    <inkscape:grid
       type="xygrid"
       id="grid18" />
  </sodipodi:namedview>
  <metadata
     id="metadata5">
    <rdf:RDF>
      <cc:Work
         rdf:about="">
        <dc:format>image/svg+xml</dc:format>
        <dc:type
           rdf:resource="http://purl.org/dc/dcmitype/StillImage" />
        <dc:title></dc:title>
      </cc:Work>
    </rdf:RDF>
  </metadata>
  <g
     inkscape:label="Layer 1"
     inkscape:groupmode="layer"
     id="layer1"
     transform="translate(0,-262.60415)">
    <path
       style="fill:none;fill-rule:evenodd;stroke:#000000;stroke-width:0.5291667;stroke-linecap:butt;stroke-linejoin:miter;stroke-miterlimit:4;stroke-dasharray:none;stroke-opacity:1"
       d="m 1.3229167,265.51457 c 0,-1.67569 2.6458333,-1.67569 2.6458333,-1.67569 -3.96874984878054,10.05416 -3.96874984878054,10.05416 0,21.78402 -2.6458333,-1.67569 -3.97838476,-7.62651 -2.6458333,-11.72986 1.3701637,-4.21916 11.9062503,0 11.9062503,-10.05416 -3.96875,10.05416 -3.96875,10.05416 0,21.78402 7.9375,0.83785 5.291666,-5.86493 2.645833,-11.72986 -2.645833,5.86493 -2.645834,11.72986 0,11.72986 2.645833,0 5.291667,0 5.291667,-11.72986 -2.629753,5.82929 0,11.72986 2.645833,11.72986 2.645833,0 0,-5.86493 2.645834,-11.72986 -1.322917,5.86493 1.322916,11.72986 2.645832,0 -2.645833,5.86493 -2.746253,11.72986 0,11.72986 2.54642,0 5.291667,-8.51012 5.291667,-11.72986 0,11.72986 -9.260416,21.78403 -10.583333,21.78403 0,-0.83785 13.229167,-21.78403 15.875,-21.78403 2.645833,0 -1.322917,11.72986 -3.96875,11.72986 -6.614583,0 7.9375,-15.08125 7.9375,-21.78402 -2.645833,10.89201 -2.645833,10.89201 0,21.78402 2.645833,0 2.645833,-1.67569 2.645833,-1.67569"
       id="path10"
       inkscape:connector-curvature="0"
       sodipodi:nodetypes="cccccccscsccscccsccc"
       inkscape:export-xdpi="96"
       inkscape:export-ydpi="96" />
    <path
       style="fill:none;fill-rule:evenodd;stroke:#000000;stroke-width:0.5291667;stroke-linecap:butt;stroke-linejoin:miter;stroke-miterlimit:4;stroke-dasharray:none;stroke-opacity:1"
       d="m 30.427083,270.54165 c 0,0 11.90625,0.83785 23.8125,-1.67569"
       id="path20"
       inkscape:connector-curvature="0"
       sodipodi:nodetypes="cc"
       inkscape:export-xdpi="96"
       inkscape:export-ydpi="96" />
  </g>
</svg>
